<svg xmlns="http://www.w3.org/2000/svg" xmlns:xlink="http://www.w3.org/1999/xlink" viewBox="0,0,256,256" width="100px" height="100px"><g transform=""><g fill="#000000" fill-rule="nonzero" stroke="none" stroke-width="1" stroke-linecap="butt" stroke-linejoin="miter" stroke-miterlimit="10" stroke-dasharray="" stroke-dashoffset="0" font-family="none" font-weight="none" font-size="none" text-anchor="none" style="mix-blend-mode: normal"><path d="M101.12,256c-55.84703,0 -101.12,-45.27297 -101.12,-101.12v-53.76c0,-55.84703 45.27297,-101.12 101.12,-101.12h53.76c55.84703,0 101.12,45.27297 101.12,101.12v53.76c0,55.84703 -45.27297,101.12 -101.12,101.12z" id="shape"></path></g><g fill="none" fill-rule="nonzero" stroke="none" stroke-width="1" stroke-linecap="butt" stroke-linejoin="none" stroke-miterlimit="10" stroke-dasharray="" stroke-dashoffset="0" font-family="none" font-weight="none" font-size="none" text-anchor="none" style="mix-blend-mode: normal"><path transform="scale(10.66667,10.66667)" d="M10.65039,3c-0.96,1.06 -1.54102,2.46 -1.54102,4h-4v-4zM20.10938,3v4h-4c-0.552,0 -1,0.448 -1,1v8.5c0,3.04 -2.46,5.5 -5.5,5.5c-3.04,0 -5.5,-2.46 -5.5,-5.5c0,-2.87 2.19,-5.2207 5,-5.4707v4.06055c-0.58,0.2 -1,0.76016 -1,1.41016c0,0.83 0.67,1.5 1.5,1.5c0.81,0 1.47023,-0.63945 1.49023,-1.43945c0.01,-0.02 0.00977,-0.04055 0.00977,-0.06055v-9.5c0,-2.209 1.791,-4 4,-4zM19.10938,10c0,0.55228 -0.44772,1 -1,1c-0.55228,0 -1,-0.44772 -1,-1c0,-0.55228 0.44772,-1 1,-1c0.55228,0 1,0.44772 1,1z" id="strokeMainSVG" fill="#000000" stroke="#000000" stroke-linejoin="round"></path><g transform="scale(10.66667,10.66667)" fill="#ff004d" stroke="none" stroke-linejoin="miter"><path d="M5.10938,3v4h4c0,-1.54 0.58102,-2.94 1.54102,-4zM15.10938,3c-2.209,0 -4,1.791 -4,4v4.21094v5.28906c0,0.02 0.00023,0.04055 -0.00977,0.06055c-0.02,0.8 -0.68023,1.43945 -1.49023,1.43945c-0.83,0 -1.5,-0.67 -1.5,-1.5c0,-0.65 0.42,-1.21016 1,-1.41016v-4.06055c-2.81,0.25 -5,2.6007 -5,5.4707c0,3.04 2.46,5.5 5.5,5.5c3.04,0 5.5,-2.46 5.5,-5.5v-8.5c0,-0.552 0.448,-1 1,-1h4v-4zM18.10938,9c-0.55228,0 -1,0.44772 -1,1c0,0.55228 0.44772,1 1,1c0.55228,0 1,-0.44772 1,-1c0,-0.55228 -0.44772,-1 -1,-1z"></path></g></g></g></svg>